<svg xmlns="http://www.w3.org/2000/svg" width="16" height="15" viewBox="0 0 16 15">
  <defs>
    <style>
      .cls-1 {
        fill: #fff;
        fill-rule: evenodd;
      }
    </style>
  </defs>
  <path class="cls-1" d="M1131.44,923.533a0.174,0.174,0,0,0-.18-0.016l-15.68,7.949a0.161,0.161,0,0,0-.08.156,0.155,0.155,0,0,0,.11.14l4.96,1.565a0.173,0.173,0,0,0,.16-0.034l7.54-6.4-5.79,6.8a0.137,0.137,0,0,0-.03.149,0.145,0.145,0,0,0,.1.107l5.83,1.759a0.14,0.14,0,0,0,.04.007,0.153,0.153,0,0,0,.08-0.021,0.161,0.161,0,0,0,.08-0.1l2.91-11.9A0.165,0.165,0,0,0,1131.44,923.533Zm-7.18,12.161-1.61-.491a0.178,0.178,0,0,0-.15.024,0.158,0.158,0,0,0-.06.129v3.012a0.162,0.162,0,0,0,.12.154,0.14,0.14,0,0,0,.04.007,0.175,0.175,0,0,0,.14-0.075l1.61-2.522a0.171,0.171,0,0,0,.01-0.14A0.157,0.157,0,0,0,1124.26,935.694Z" transform="translate(-1115.5 -923.531)"/>
</svg>
