<svg xmlns="http://www.w3.org/2000/svg" width="16" height="16" viewBox="0 0 16 16">
  <defs>
    <style>
      .cls-1 {
        fill: #fff;
        fill-rule: evenodd;
      }
    </style>
  </defs>
  <path class="cls-1" d="M411.663,925h-5.676l2.239-2.687a0.616,0.616,0,0,0,.1.02,0.69,0.69,0,1,0-.621-0.441L405.119,925h-0.243l-2.589-3.108a0.683,0.683,0,0,0,.045-0.226,0.667,0.667,0,1,0-.667.667,0.6,0.6,0,0,0,.1-0.02L404.008,925h-5.676A1.334,1.334,0,0,0,397,926.334v9.337a1.333,1.333,0,0,0,1.332,1.334h13.331A1.333,1.333,0,0,0,413,935.671v-9.337A1.334,1.334,0,0,0,411.663,925ZM409,934.337a1.334,1.334,0,0,1-1.334,1.334h-8a1.334,1.334,0,0,1-1.334-1.334v-6.669a1.334,1.334,0,0,1,1.334-1.334h8A1.334,1.334,0,0,1,409,927.668v6.669Zm1.964-5.96a0.953,0.953,0,1,1,.951-0.953A0.953,0.953,0,0,1,410.961,928.377Z" transform="translate(-397 -921)"/>
</svg>
