<svg xmlns="http://www.w3.org/2000/svg" width="11.656" height="16" viewBox="0 0 11.656 16">
  <defs>
    <style>
      .cls-1 {
        fill: #fff;
        fill-rule: evenodd;
      }
    </style>
  </defs>
  <path class="cls-1" d="M891.22,935.989l-3.065-8.291v-2.44a1.473,1.473,0,0,0,.994-1.389v-0.4A1.476,1.476,0,0,0,887.67,922H883.3a1.477,1.477,0,0,0-1.479,1.471v0.4a1.471,1.471,0,0,0,1,1.388V927.7l-3.059,8.275a1.464,1.464,0,0,0,.142,1.376,1.479,1.479,0,0,0,1.228.649h8.722a1.476,1.476,0,0,0,1.227-.65A1.45,1.45,0,0,0,891.22,935.989Zm-8.111-1.88a0.5,0.5,0,1,1,.5.5A0.5,0.5,0,0,1,883.109,934.109Zm3.25,0.437a0.866,0.866,0,1,1-.871.865A0.869,0.869,0,0,1,886.359,934.546Zm-0.742-1.9a0.628,0.628,0,1,1,.629.624A0.628,0.628,0,0,1,885.617,932.648Zm-1.828-4.777v-3.018l0-.487H883.3a0.5,0.5,0,0,1-.5-0.5v-0.4a0.5,0.5,0,0,1,.5-0.5h4.375a0.5,0.5,0,0,1,.5.5v0.4a0.5,0.5,0,0,1-.5.5h-0.49v3.5l0.859,2.321c-0.012.011-.022,0.018-0.034,0.03-0.639.66-5.308,0.736-5.308,0.736h-0.045Zm1.353,1.873a0.678,0.678,0,1,0-.682-0.678A0.681,0.681,0,0,0,885.142,929.744Z" transform="translate(-879.656 -922)"/>
</svg>
